<svg xmlns="http://www.w3.org/2000/svg"
  viewBox="0 0 382.02 74.64">
  <path d="M0,6.28A6.28,6.28,0,0,1,6.33,0a6.28,6.28,0,0,1,0,12.56A6.32,6.32,0,0,1,0,6.28ZM.86,20.36H11.8V73.62H.86Z"
    fill="#fff"></path>
  <path
    d="M51.69.57c14.18,0,24,9.77,24,24s-10.07,24.1-24.4,24.1H35.64v25H24.3V.57Zm-16,38.58h13c9.87,0,15.49-5.32,15.49-14.53S58.53,10.14,48.71,10.14H35.64Z"
    fill="#fff"></path>
  <path
    d="M83.52.57H94.35v28.7h.26c2.93-6.22,8.75-9.82,16.85-9.82,11.7,0,18.69,7.8,18.69,19.85V73.62h-11V41.42c0-7.84-4-12.55-11.64-12.55-8.1,0-13.07,5.57-13.07,14V73.62H83.52Z"
    fill="#fff"></path>
  <path
    d="M137.79,47c0-17.11,10.07-27.59,25.26-27.59S188.31,29.88,188.31,47s-10,27.65-25.26,27.65S137.79,64.16,137.79,47Zm39.39,0c0-11.79-5.57-18.58-14.13-18.58S148.92,35.2,148.92,47s5.57,18.64,14.13,18.64S177.18,58.84,177.18,47Z"
    fill="#fff"></path>
  <path
    d="M196.36,20.36h10.43v8.91H207c2.89-6.07,8.56-9.82,16.76-9.82,11.75,0,18.48,7.49,18.48,19.7V73.62h-11V41.27c0-8-3.74-12.4-11.34-12.4S207.3,34.34,207.3,42.59v31H196.36Z"
    fill="#fff"></path>
  <path
    d="M298.07,58c-1.52,9.72-10.73,16.66-22.93,16.66C259.49,74.64,250,64.06,250,47.25s9.62-27.85,24.66-27.85c14.78,0,24,10.43,24,26.58v3.75H261.06v.66c0,9.26,5.57,15.39,14.33,15.39,6.23,0,10.83-3.14,12.3-7.8Zm-37-15.9h26.63c-.25-8.15-5.41-13.87-13.06-13.87S261.67,34,261.11,42.08Z"
    fill="#fff"></path>
  <polygon
    points="370.95 0.61 356 10.96 356 22.12 370.91 11.52 371.05 11.52 371.05 73.62 382.02 73.62 382.02 0.61 370.95 0.61"
    fill="#fff"></polygon>
  <polygon
    points="332.63 0.61 317.68 10.96 317.68 22.12 332.59 11.52 332.73 11.52 332.73 73.62 343.7 73.62 343.7 0.61 332.63 0.61"
    fill="#fff"></polygon>
</svg>